<svg width="35" height="38" viewBox="0 0 35 38" fill="none" xmlns="http://www.w3.org/2000/svg">
<path d="M18.9614 18.1894L25.2233 11.9468L4.99765 0.614392C3.65718 -0.107608 2.40141 -0.208941 1.30023 0.580615L18.9614 18.1894ZM26.2906 25.4981L32.8002 21.8479C34.0708 21.1386 34.7675 20.1337 34.7675 19.0191C34.7675 17.9065 34.0708 16.8995 32.8024 16.1902L26.9089 12.8905L20.2744 19.5025L26.2906 25.4981V25.4981ZM0.211764 2.11539C0.0762351 2.53128 0 2.99573 0 3.5045V34.5484C0 35.3527 0.177882 36.0452 0.499765 36.5962L17.6464 19.5004L0.211764 2.11539ZM18.9614 20.8093L1.91012 37.8101C2.23624 37.9346 2.58776 38.0001 2.95835 38.0001C3.61906 38.0001 4.30729 37.8058 5.00823 37.4174L24.6071 26.446L18.9614 20.8093V20.8093Z" fill="#252B42"/>
</svg>
